<?xml version="1.0" encoding="utf-8"?>
<!-- Generator: Adobe Illustrator 22.0.1, SVG Export Plug-In . SVG Version: 6.00 Build 0)  -->
<svg version="1.1" id="Capa_1" xmlns="http://www.w3.org/2000/svg" xmlns:xlink="http://www.w3.org/1999/xlink" x="0px" y="0px"
	 viewBox="0 0 16 9" style="enable-background:new 0 0 16 9;" xml:space="preserve">
<title>page-next-white</title>
<desc>Created with Sketch.</desc>
<g id="page-next">
	<path id="chevron-right" d="M14.5,0.3C14.7,0.1,14.9,0,15.1,0s0.5,0.1,0.6,0.3C15.9,0.4,16,0.7,16,0.9s-0.1,0.5-0.3,0.6L8.6,8.7
		C8.5,8.9,8.2,9,8,9C7.8,9,7.5,8.9,7.4,8.7L0.3,1.6C0.2,1.5,0.1,1.4,0.1,1.2C0,1.1,0,1,0,0.9s0-0.2,0.1-0.3c0-0.1,0.1-0.2,0.2-0.3
		C0.4,0.1,0.6,0,0.9,0s0.5,0.1,0.6,0.3L8,6.8L14.5,0.3z"/>
</g>
</svg>
