<?xml version="1.0" encoding="utf-8"?>
<!-- Generator: Adobe Illustrator 22.0.1, SVG Export Plug-In . SVG Version: 6.00 Build 0)  -->
<svg version="1.1" id="Capa_1" xmlns="http://www.w3.org/2000/svg" xmlns:xlink="http://www.w3.org/1999/xlink" x="0px" y="0px"
	 viewBox="0 0 9 16" style="enable-background:new 0 0 9 16;" xml:space="preserve">
<style type="text/css">
	.st0{fill:#FFFFFF;}
</style>
<title>page-prev</title>
<desc>Created with Sketch.</desc>
<g id="page-prev">
	<path id="chevron-right" class="st0" d="M8.7,1.5C8.9,1.3,9,1.1,9,0.9S8.9,0.4,8.7,0.3S8.3,0,8.1,0S7.6,0.1,7.5,0.3L0.3,7.4
		C0.1,7.5,0,7.8,0,8c0,0.2,0.1,0.5,0.3,0.6l7.2,7.1c0.1,0.1,0.2,0.2,0.3,0.2C7.9,16,8,16,8.1,16c0.1,0,0.2,0,0.3-0.1
		c0.1,0,0.2-0.1,0.3-0.2C8.9,15.6,9,15.4,9,15.1s-0.1-0.5-0.3-0.6L2.2,8L8.7,1.5z"/>
</g>
</svg>
