<svg width="9px" height="16px" viewBox="0 0 9 16" version="1.1" xmlns="http://www.w3.org/2000/svg" xmlns:xlink="http://www.w3.org/1999/xlink">
    <title>page-next-white</title>
    <desc>Created with Sketch.</desc>
    <defs></defs>
    <g id="page-next" stroke="none" stroke-width="1" fill="#ffffff" fill-rule="evenodd">
        <path d="M0.263634109,1.51475029 C0.0920052302,1.34519122 0,1.12704163 0,0.887602508 C0,0.64816339 0.0920052302,0.430013797 0.263634109,0.26045473 C0.435262989,0.090895664 0.656075541,0 0.8984375,0 C1.14079946,0 1.36161201,0.090895664 1.533049,0.26026526 L8.73636589,7.36899308 C8.90861555,7.53916544 9,7.75885254 9,8 C9,8.24114746 8.90861555,8.46083456 8.736174,8.63119639 L1.55597585,15.7155372 C1.46515402,15.8180819 1.35258151,15.8955953 1.22363393,15.9425294 C1.1189802,15.980621 1.00969353,16 0.8984375,16 C0.787181465,16 0.677894795,15.980621 0.573241071,15.9425294 C0.444293488,15.8955953 0.331720979,15.8180819 0.263634109,15.7395453 C0.0920052302,15.5699862 0,15.3518366 0,15.1123975 C0,14.8729584 0.0920052302,14.6548088 0.263634109,14.4852497 L6.8243428,8.00366197 L0.263634109,1.51475029 Z" id="chevron-right" fill="#ffffff" fill-rule="nonzero"></path>
    </g>
</svg>